<svg width="85" height="48" viewBox="0 0 85 48" fill="none" xmlns="http://www.w3.org/2000/svg">
<path d="M48.8564 1.58899C49.7352 1.58899 50.4457 2.29919 50.4457 3.1781V22.2477C50.4457 23.1249 49.7352 23.8368 48.8564 23.8368H36.1436C35.2664 23.8368 34.5544 23.1249 34.5544 22.2477V3.1781C34.5544 2.29919 35.2664 1.58899 36.1436 1.58899H48.8564ZM48.8564 0H36.1436C34.3924 0 32.9653 1.42529 32.9653 3.1781V22.2477C32.9653 24.0002 34.3924 25.4258 36.1436 25.4258H48.8564C50.6091 25.4258 52.0347 24.0002 52.0347 22.2477V3.1781C52.0347 1.42529 50.6091 0 48.8564 0Z" fill="#C61D35"/>
<path d="M39.3218 10.3291C39.3218 9.88879 39.6777 9.53479 40.1163 9.53479H48.0619C48.5021 9.53479 48.8565 9.88879 48.8565 10.3291C48.8565 10.7678 48.5021 11.1238 48.0619 11.1238H40.1163C39.6777 11.1238 39.3218 10.7678 39.3218 10.3291Z" fill="#C61D35"/>
<path d="M39.3218 5.56201C39.3218 5.1217 39.6777 4.76733 40.1163 4.76733H48.0619C48.5021 4.76733 48.8565 5.1217 48.8565 5.56201C48.8565 6.00061 48.5021 6.35657 48.0619 6.35657H40.1163C39.6777 6.35657 39.3218 6.00061 39.3218 5.56201Z" fill="#C61D35"/>
<path d="M39.3218 15.0966C39.3218 14.6562 39.6777 14.302 40.1163 14.302H48.0619C48.5021 14.302 48.8565 14.6562 48.8565 15.0966C48.8565 15.5352 48.5021 15.8911 48.0619 15.8911H40.1163C39.6777 15.8911 39.3218 15.5352 39.3218 15.0966Z" fill="#C61D35"/>
<path d="M39.3218 19.8639C39.3218 19.4235 39.6777 19.0693 40.1163 19.0693H48.0619C48.5021 19.0693 48.8565 19.4235 48.8565 19.8639C48.8565 20.3025 48.5021 20.6584 48.0619 20.6584H40.1163C39.6777 20.6584 39.3218 20.3025 39.3218 19.8639Z" fill="#C61D35"/>
<path d="M36.1436 10.3291C36.1436 9.88879 36.4995 9.53479 36.938 9.53479C37.3782 9.53479 37.7327 9.88879 37.7327 10.3291C37.7327 10.7678 37.3782 11.1238 36.938 11.1238C36.4995 11.1238 36.1436 10.7678 36.1436 10.3291Z" fill="#C61D35"/>
<path d="M36.1436 5.56201C36.1436 5.1217 36.4995 4.76733 36.938 4.76733C37.3782 4.76733 37.7327 5.1217 37.7327 5.56201C37.7327 6.00061 37.3782 6.35657 36.938 6.35657C36.4995 6.35657 36.1436 6.00061 36.1436 5.56201Z" fill="#C61D35"/>
<path d="M36.1436 15.0966C36.1436 14.6562 36.4995 14.302 36.938 14.302C37.3782 14.302 37.7327 14.6562 37.7327 15.0966C37.7327 15.5352 37.3782 15.8911 36.938 15.8911C36.4995 15.8911 36.1436 15.5352 36.1436 15.0966Z" fill="#C61D35"/>
<path d="M36.1436 19.8639C36.1436 19.4235 36.4995 19.0693 36.938 19.0693C37.3782 19.0693 37.7327 19.4235 37.7327 19.8639C37.7327 20.3025 37.3782 20.6584 36.938 20.6584C36.4995 20.6584 36.1436 20.3025 36.1436 19.8639Z" fill="#C61D35"/>
<path d="M4.89 41.8758H1.85L1.29 43.4258H0.33L2.85 36.4958H3.9L6.41 43.4258H5.45L4.89 41.8758ZM4.63 41.1358L3.37 37.6158L2.11 41.1358H4.63ZM13.1883 38.4758C12.9949 38.0691 12.7149 37.7558 12.3483 37.5358C11.9816 37.3091 11.5549 37.1958 11.0683 37.1958C10.5816 37.1958 10.1416 37.3091 9.74828 37.5358C9.36161 37.7558 9.05495 38.0758 8.82828 38.4958C8.60828 38.9091 8.49828 39.3891 8.49828 39.9358C8.49828 40.4824 8.60828 40.9624 8.82828 41.3758C9.05495 41.7891 9.36161 42.1091 9.74828 42.3358C10.1416 42.5558 10.5816 42.6658 11.0683 42.6658C11.7483 42.6658 12.3083 42.4624 12.7483 42.0558C13.1883 41.6491 13.4449 41.0991 13.5183 40.4058H10.7383V39.6658H14.4883V40.3658C14.4349 40.9391 14.2549 41.4658 13.9483 41.9458C13.6416 42.4191 13.2383 42.7958 12.7383 43.0758C12.2383 43.3491 11.6816 43.4858 11.0683 43.4858C10.4216 43.4858 9.83161 43.3358 9.29828 43.0358C8.76495 42.7291 8.34161 42.3058 8.02828 41.7658C7.72161 41.2258 7.56828 40.6158 7.56828 39.9358C7.56828 39.2558 7.72161 38.6458 8.02828 38.1058C8.34161 37.5591 8.76495 37.1358 9.29828 36.8358C9.83161 36.5291 10.4216 36.3758 11.0683 36.3758C11.8083 36.3758 12.4616 36.5591 13.0283 36.9258C13.6016 37.2924 14.0183 37.8091 14.2783 38.4758H13.1883ZM17.0015 37.1958V39.5258H19.5415V40.2758H17.0015V42.6758H19.8415V43.4258H16.0915V36.4458H19.8415V37.1958H17.0015ZM27.0984 43.4258H26.1884L22.5284 37.8758V43.4258H21.6184V36.4458H22.5284L26.1884 41.9858V36.4458H27.0984V43.4258ZM31.2197 36.4558C31.9797 36.4558 32.6364 36.5991 33.1897 36.8858C33.7497 37.1658 34.1764 37.5691 34.4697 38.0958C34.7697 38.6224 34.9197 39.2424 34.9197 39.9558C34.9197 40.6691 34.7697 41.2891 34.4697 41.8158C34.1764 42.3358 33.7497 42.7358 33.1897 43.0158C32.6364 43.2891 31.9797 43.4258 31.2197 43.4258H29.0497V36.4558H31.2197ZM31.2197 42.6758C32.1197 42.6758 32.8064 42.4391 33.2797 41.9658C33.753 41.4858 33.9897 40.8158 33.9897 39.9558C33.9897 39.0891 33.7497 38.4124 33.2697 37.9258C32.7964 37.4391 32.113 37.1958 31.2197 37.1958H29.9597V42.6758H31.2197ZM40.64 41.8758H37.6L37.04 43.4258H36.08L38.6 36.4958H39.65L42.16 43.4258H41.2L40.64 41.8758ZM40.38 41.1358L39.12 37.6158L37.86 41.1358H40.38ZM50.7283 36.5058V43.4258H49.8183V38.2658L47.5183 43.4258H46.8783L44.5683 38.2558V43.4258H43.6583V36.5058H44.6383L47.1983 42.2258L49.7583 36.5058H50.7283ZM53.5816 37.1958V39.5258H56.1216V40.2758H53.5816V42.6758H56.4216V43.4258H52.6716V36.4458H56.4216V37.1958H53.5816ZM63.6785 43.4258H62.7685L59.1085 37.8758V43.4258H58.1985V36.4458H59.1085L62.7685 41.9858V36.4458H63.6785V43.4258ZM69.9198 36.4558V37.1958H68.0198V43.4258H67.1098V37.1958H65.1998V36.4558H69.9198ZM74.5999 43.4958C73.9533 43.4958 73.3633 43.3458 72.8299 43.0458C72.2966 42.7391 71.8733 42.3158 71.5599 41.7758C71.2533 41.2291 71.0999 40.6158 71.0999 39.9358C71.0999 39.2558 71.2533 38.6458 71.5599 38.1058C71.8733 37.5591 72.2966 37.1358 72.8299 36.8358C73.3633 36.5291 73.9533 36.3758 74.5999 36.3758C75.2533 36.3758 75.8466 36.5291 76.3799 36.8358C76.9133 37.1358 77.3333 37.5558 77.6399 38.0958C77.9466 38.6358 78.0999 39.2491 78.0999 39.9358C78.0999 40.6224 77.9466 41.2358 77.6399 41.7758C77.3333 42.3158 76.9133 42.7391 76.3799 43.0458C75.8466 43.3458 75.2533 43.4958 74.5999 43.4958ZM74.5999 42.7058C75.0866 42.7058 75.5233 42.5924 75.9099 42.3658C76.3033 42.1391 76.6099 41.8158 76.8299 41.3958C77.0566 40.9758 77.1699 40.4891 77.1699 39.9358C77.1699 39.3758 77.0566 38.8891 76.8299 38.4758C76.6099 38.0558 76.3066 37.7324 75.9199 37.5058C75.5333 37.2791 75.0933 37.1658 74.5999 37.1658C74.1066 37.1658 73.6666 37.2791 73.2799 37.5058C72.8933 37.7324 72.5866 38.0558 72.3599 38.4758C72.1399 38.8891 72.0299 39.3758 72.0299 39.9358C72.0299 40.4891 72.1399 40.9758 72.3599 41.3958C72.5866 41.8158 72.8933 42.1391 73.2799 42.3658C73.6733 42.5924 74.1133 42.7058 74.5999 42.7058ZM81.9113 43.4958C81.4513 43.4958 81.0379 43.4158 80.6713 43.2558C80.3113 43.0891 80.0279 42.8624 79.8213 42.5758C79.6146 42.2824 79.5079 41.9458 79.5013 41.5658H80.4713C80.5046 41.8924 80.6379 42.1691 80.8713 42.3958C81.1113 42.6158 81.4579 42.7258 81.9113 42.7258C82.3446 42.7258 82.6846 42.6191 82.9313 42.4058C83.1846 42.1858 83.3113 41.9058 83.3113 41.5658C83.3113 41.2991 83.2379 41.0824 83.0913 40.9158C82.9446 40.7491 82.7613 40.6224 82.5413 40.5358C82.3213 40.4491 82.0246 40.3558 81.6513 40.2558C81.1913 40.1358 80.8213 40.0158 80.5413 39.8958C80.2679 39.7758 80.0313 39.5891 79.8313 39.3358C79.6379 39.0758 79.5413 38.7291 79.5413 38.2958C79.5413 37.9158 79.6379 37.5791 79.8313 37.2858C80.0246 36.9924 80.2946 36.7658 80.6413 36.6058C80.9946 36.4458 81.3979 36.3658 81.8513 36.3658C82.5046 36.3658 83.0379 36.5291 83.4513 36.8558C83.8713 37.1824 84.1079 37.6158 84.1613 38.1558H83.1613C83.1279 37.8891 82.9879 37.6558 82.7413 37.4558C82.4946 37.2491 82.1679 37.1458 81.7613 37.1458C81.3813 37.1458 81.0713 37.2458 80.8313 37.4458C80.5913 37.6391 80.4713 37.9124 80.4713 38.2658C80.4713 38.5191 80.5413 38.7258 80.6813 38.8858C80.8279 39.0458 81.0046 39.1691 81.2113 39.2558C81.4246 39.3358 81.7213 39.4291 82.1013 39.5358C82.5613 39.6624 82.9313 39.7891 83.2113 39.9158C83.4913 40.0358 83.7313 40.2258 83.9313 40.4858C84.1313 40.7391 84.2313 41.0858 84.2313 41.5258C84.2313 41.8658 84.1413 42.1858 83.9613 42.4858C83.7813 42.7858 83.5146 43.0291 83.1613 43.2158C82.8079 43.4024 82.3913 43.4958 81.9113 43.4958Z" fill="#C61D35"/>
</svg>
