<svg width="45" height="49" viewBox="0 0 45 49" fill="none" xmlns="http://www.w3.org/2000/svg">
<path d="M13.2435 22.3046C15.3761 24.429 18.1746 25.7553 21.1695 26.0607C24.1642 26.3659 27.1729 25.6317 29.6905 23.981C30.3959 23.5147 30.8541 22.756 30.9389 21.9148C31.0235 21.0736 30.7256 20.2386 30.1274 19.6412L29.625 19.1446L30.2879 18.4818C30.7179 18.0511 30.9128 17.4391 30.8106 16.839C30.7084 16.2391 30.3221 15.7259 29.7737 15.4618L26.0313 13.6575C25.7416 13.5178 25.395 13.5802 25.1722 13.8122L24.0012 15.0278H23.9655C22.3944 14.3987 21.1516 13.1505 20.5292 11.5768L21.7448 10.3611C21.9702 10.1397 22.0314 9.79984 21.8966 9.5139L20.0834 5.76551C19.8188 5.21772 19.3052 4.83183 18.7054 4.73045C18.1053 4.62885 17.4934 4.82396 17.0632 5.2542L16.3557 5.95874C15.5558 6.76014 15.0028 7.77446 14.7631 8.88129C14.5232 9.98812 14.6065 11.1403 15.0034 12.2011C15.7181 14.1074 16.8332 15.8383 18.2734 17.2771C19.7139 18.7159 21.446 19.8291 23.3529 20.5418C25.0437 21.1735 26.9307 20.9938 28.4717 20.0543C28.5018 20.1051 28.5376 20.152 28.5787 20.1941L29.0751 20.6905C29.3575 20.9724 29.4983 21.3662 29.4585 21.7633C29.4186 22.1601 29.2026 22.5182 28.87 22.7386C26.6398 24.1981 23.9756 24.8469 21.3241 24.5763C18.6723 24.3057 16.1944 23.1322 14.3047 21.2524C12.8272 19.7769 11.7756 17.9296 11.2609 15.9061C10.7463 13.8824 10.7879 11.7573 11.3812 9.75515C11.9746 7.75301 13.0976 5.94848 14.6317 4.53193C16.7682 2.58 19.5549 1.49286 22.4488 1.48251C25.3428 1.47193 28.1369 2.53891 30.2878 4.47535C32.0293 6.04742 33.2499 8.11321 33.7869 10.397C34.3237 12.6807 34.1517 15.0739 33.293 17.2571C33.1379 17.6397 33.3223 18.0755 33.7048 18.2306C34.0872 18.3857 34.523 18.2014 34.6783 17.819C35.6522 15.3535 35.8494 12.6493 35.2439 10.0682C34.6383 7.48739 33.2586 5.15329 31.2897 3.37796C28.8631 1.19275 25.7104 -0.0113294 22.4449 8.03518e-05C19.1794 0.0116961 16.0354 1.23813 13.624 3.44033C11.8922 5.03752 10.6239 7.07262 9.95314 9.3312C9.28258 11.5894 9.23406 13.9869 9.81319 16.2704C10.3923 18.5537 11.5775 20.6391 13.2435 22.3046ZM23.8729 19.1507C22.164 18.5116 20.6119 17.5132 19.3219 16.223C18.0315 14.9328 17.0332 13.3809 16.3942 11.672C16.0989 10.8797 16.0373 10.0196 16.2165 9.19337C16.3956 8.36712 16.808 7.60987 17.4048 7.01107L18.1122 6.30361C18.1838 6.22918 18.2825 6.18729 18.3857 6.18771H18.4541C18.5837 6.20471 18.6957 6.28641 18.7513 6.40459L20.3296 9.67445L19.4378 10.5663C19.2489 10.758 19.1203 11.0008 19.0674 11.265C19.0146 11.529 19.0401 11.8027 19.1406 12.0525C19.903 14.0302 21.4521 15.6029 23.4182 16.3953L23.5044 16.4281C23.764 16.5318 24.0489 16.5554 24.3222 16.4961C24.5955 16.4368 24.8447 16.2971 25.0381 16.0951L25.8733 15.2271L29.1432 16.7996C29.2574 16.855 29.3379 16.962 29.359 17.087C29.3804 17.2121 29.3397 17.3398 29.2502 17.4298L28.5427 18.1372C27.9435 18.7362 27.1848 19.1503 26.3566 19.3299C25.5287 19.5096 24.6666 19.4474 23.8729 19.1507Z" fill="#1D2B3A"/>
<path d="M0.43 40.6383C0.43 39.9583 0.583333 39.3483 0.89 38.8083C1.19667 38.2616 1.61333 37.835 2.14 37.5283C2.67333 37.2216 3.26333 37.0683 3.91 37.0683C4.67 37.0683 5.33333 37.2516 5.9 37.6183C6.46667 37.985 6.88 38.505 7.14 39.1783H6.05C5.85667 38.7583 5.57667 38.435 5.21 38.2083C4.85 37.9816 4.41667 37.8683 3.91 37.8683C3.42333 37.8683 2.98667 37.9816 2.6 38.2083C2.21333 38.435 1.91 38.7583 1.69 39.1783C1.47 39.5916 1.36 40.0783 1.36 40.6383C1.36 41.1916 1.47 41.6783 1.69 42.0983C1.91 42.5116 2.21333 42.8316 2.6 43.0583C2.98667 43.285 3.42333 43.3983 3.91 43.3983C4.41667 43.3983 4.85 43.2883 5.21 43.0683C5.57667 42.8416 5.85667 42.5183 6.05 42.0983H7.14C6.88 42.765 6.46667 43.2816 5.9 43.6483C5.33333 44.0083 4.67 44.1883 3.91 44.1883C3.26333 44.1883 2.67333 44.0383 2.14 43.7383C1.61333 43.4316 1.19667 43.0083 0.89 42.4683C0.583333 41.9283 0.43 41.3183 0.43 40.6383ZM9.80461 37.8983V40.2283H12.3446V40.9783H9.80461V43.3783H12.6446V44.1283H8.89461V37.1483H12.6446V37.8983H9.80461ZM19.9016 44.1283H18.9916L15.3316 38.5783V44.1283H14.4216V37.1483H15.3316L18.9916 42.6883V37.1483H19.9016V44.1283ZM26.1428 37.1583V37.8983H24.2428V44.1283H23.3328V37.8983H21.4228V37.1583H26.1428ZM31.333 44.1283L29.673 41.2783H28.573V44.1283H27.663V37.1583H29.913C30.4396 37.1583 30.883 37.2483 31.243 37.4283C31.6096 37.6083 31.883 37.8516 32.063 38.1583C32.243 38.465 32.333 38.815 32.333 39.2083C32.333 39.6883 32.193 40.1116 31.913 40.4783C31.6396 40.845 31.2263 41.0883 30.673 41.2083L32.423 44.1283H31.333ZM28.573 40.5483H29.913C30.4063 40.5483 30.7763 40.4283 31.023 40.1883C31.2696 39.9416 31.393 39.615 31.393 39.2083C31.393 38.795 31.2696 38.475 31.023 38.2483C30.783 38.0216 30.413 37.9083 29.913 37.9083H28.573V40.5483ZM38.267 42.5783H35.227L34.667 44.1283H33.707L36.227 37.1983H37.277L39.787 44.1283H38.827L38.267 42.5783ZM38.007 41.8383L36.747 38.3183L35.487 41.8383H38.007ZM42.1952 43.3883H44.6352V44.1283H41.2852V37.1583H42.1952V43.3883Z" fill="#1D2B3A"/>
</svg>
