<svg width="32" height="50" viewBox="0 0 32 50" fill="none" xmlns="http://www.w3.org/2000/svg">
<path d="M6.56653 25.0706V10.4835L16.0001 1.04999L25.4335 10.4835V15.2493V25.0706H6.56653Z" stroke="#C61D35" stroke-width="2.1" stroke-linecap="round" stroke-linejoin="round"/>
<path d="M12.8605 24.0706V17.298H19.1395V24.0706" stroke="#C61D35" stroke-width="2.1" stroke-linecap="round" stroke-linejoin="round"/>
<path d="M1.68 38.1006V45.0706H0.77V38.1006H1.68ZM9.11094 45.0706H8.20094L4.54094 39.5206V45.0706H3.63094V38.0906H4.54094L8.20094 43.6306V38.0906H9.11094V45.0706ZM11.9722 38.1006V45.0706H11.0622V38.1006H11.9722ZM12.4922 36.5906L10.3622 37.7306V37.0506L12.4922 35.8006V36.5906ZM13.5831 41.5806C13.5831 40.9006 13.7365 40.2906 14.0431 39.7506C14.3498 39.204 14.7665 38.7773 15.2931 38.4706C15.8265 38.164 16.4165 38.0106 17.0631 38.0106C17.8231 38.0106 18.4865 38.194 19.0531 38.5606C19.6198 38.9273 20.0331 39.4473 20.2931 40.1206H19.2031C19.0098 39.7006 18.7298 39.3773 18.3631 39.1506C18.0031 38.924 17.5698 38.8106 17.0631 38.8106C16.5765 38.8106 16.1398 38.924 15.7531 39.1506C15.3665 39.3773 15.0631 39.7006 14.8431 40.1206C14.6231 40.534 14.5131 41.0206 14.5131 41.5806C14.5131 42.134 14.6231 42.6206 14.8431 43.0406C15.0631 43.454 15.3665 43.774 15.7531 44.0006C16.1398 44.2273 16.5765 44.3406 17.0631 44.3406C17.5698 44.3406 18.0031 44.2306 18.3631 44.0106C18.7298 43.784 19.0098 43.4606 19.2031 43.0406H20.2931C20.0331 43.7073 19.6198 44.224 19.0531 44.5906C18.4865 44.9506 17.8231 45.1306 17.0631 45.1306C16.4165 45.1306 15.8265 44.9806 15.2931 44.6806C14.7665 44.374 14.3498 43.9506 14.0431 43.4106C13.7365 42.8706 13.5831 42.2606 13.5831 41.5806ZM22.9577 38.1006V45.0706H22.0477V38.1006H22.9577ZM28.0687 45.1406C27.422 45.1406 26.832 44.9906 26.2987 44.6906C25.7653 44.384 25.342 43.9606 25.0287 43.4206C24.722 42.874 24.5687 42.2606 24.5687 41.5806C24.5687 40.9006 24.722 40.2906 25.0287 39.7506C25.342 39.204 25.7653 38.7806 26.2987 38.4806C26.832 38.174 27.422 38.0206 28.0687 38.0206C28.722 38.0206 29.3153 38.174 29.8487 38.4806C30.382 38.7806 30.802 39.2006 31.1087 39.7406C31.4153 40.2806 31.5687 40.894 31.5687 41.5806C31.5687 42.2673 31.4153 42.8806 31.1087 43.4206C30.802 43.9606 30.382 44.384 29.8487 44.6906C29.3153 44.9906 28.722 45.1406 28.0687 45.1406ZM28.0687 44.3506C28.5553 44.3506 28.992 44.2373 29.3787 44.0106C29.772 43.784 30.0787 43.4606 30.2987 43.0406C30.5253 42.6206 30.6387 42.134 30.6387 41.5806C30.6387 41.0206 30.5253 40.534 30.2987 40.1206C30.0787 39.7006 29.7753 39.3773 29.3887 39.1506C29.002 38.924 28.562 38.8106 28.0687 38.8106C27.5753 38.8106 27.1353 38.924 26.7487 39.1506C26.362 39.3773 26.0553 39.7006 25.8287 40.1206C25.6087 40.534 25.4987 41.0206 25.4987 41.5806C25.4987 42.134 25.6087 42.6206 25.8287 43.0406C26.0553 43.4606 26.362 43.784 26.7487 44.0106C27.142 44.2373 27.582 44.3506 28.0687 44.3506Z" fill="#C61D35"/>
</svg>
