<svg width="31" height="49" viewBox="0 0 31 49" fill="none" xmlns="http://www.w3.org/2000/svg">
<path d="M21.4823 5.9823C21.4823 2.68396 18.7983 0 15.5 0C12.2018 0 9.5177 2.68396 9.5177 5.9823C9.5177 9.28064 12.2018 11.9646 15.5 11.9646C18.7983 11.9646 21.4823 9.28064 21.4823 5.9823ZM15.5 9.97046C13.3005 9.97046 11.5118 8.18176 11.5118 5.9823C11.5118 3.78284 13.3005 1.99414 15.5 1.99414C17.6995 1.99414 19.4882 3.78284 19.4882 5.9823C19.4882 8.18176 17.6995 9.97046 15.5 9.97046Z" fill="#C61D35"/>
<path d="M22.9465 17.0483C21.078 14.8212 18.3022 13.4613 15.339 13.4613C9.84129 13.4613 5.36853 17.934 5.36853 23.4316C5.36853 24.5325 6.26187 25.4257 7.36263 25.4257H21.3213H24.7078C27.1172 25.1936 24.1943 18.3304 22.9465 17.0483ZM21.3213 23.4316H19.3272H7.36263C7.36263 19.0267 10.9341 15.4553 15.339 15.4553C17.7938 15.4553 19.9693 16.5779 21.427 18.3247C21.4489 18.3508 21.4689 18.3826 21.4908 18.4084C21.9016 18.9149 22.2625 19.4615 22.5417 20.0576C23.0243 21.0846 23.3154 22.2212 23.3154 23.4316H21.3213Z" fill="#C61D35"/>
<path d="M5.43 39.4957C5.43 40.0757 5.23 40.559 4.83 40.9457C4.43667 41.3257 3.83333 41.5157 3.02 41.5157H1.68V44.4257H0.77V37.4557H3.02C3.80667 37.4557 4.40333 37.6457 4.81 38.0257C5.22333 38.4057 5.43 38.8957 5.43 39.4957ZM3.02 40.7657C3.52667 40.7657 3.9 40.6557 4.14 40.4357C4.38 40.2157 4.5 39.9023 4.5 39.4957C4.5 38.6357 4.00667 38.2057 3.02 38.2057H1.68V40.7657H3.02ZM7.87102 38.1957V40.5257H10.411V41.2757H7.87102V43.6757H10.711V44.4257H6.96102V37.4457H10.711V38.1957H7.87102ZM16.158 44.4257L14.498 41.5757H13.398V44.4257H12.488V37.4557H14.738C15.2646 37.4557 15.708 37.5457 16.068 37.7257C16.4346 37.9057 16.708 38.149 16.888 38.4557C17.068 38.7623 17.158 39.1123 17.158 39.5057C17.158 39.9857 17.018 40.409 16.738 40.7757C16.4646 41.1423 16.0513 41.3857 15.498 41.5057L17.248 44.4257H16.158ZM13.398 40.8457H14.738C15.2313 40.8457 15.6013 40.7257 15.848 40.4857C16.0946 40.239 16.218 39.9123 16.218 39.5057C16.218 39.0923 16.0946 38.7723 15.848 38.5457C15.608 38.319 15.238 38.2057 14.738 38.2057H13.398V40.8457ZM22.912 37.4557V38.1957H19.882V40.5457H22.342V41.2857H19.882V44.4257H18.972V37.4557H22.912ZM25.321 37.4557V44.4257H24.411V37.4557H25.321ZM28.182 43.6857H30.622V44.4257H27.272V37.4557H28.182V43.6857Z" fill="#C61D35"/>
</svg>
