<svg width="17" height="17" viewBox="0 0 17 17" fill="none" xmlns="http://www.w3.org/2000/svg">
<g clip-path="url(#clip0_2_204)">
<path d="M3 0.700195H14C15.2703 0.700195 16.2998 1.72975 16.2998 3V14C16.2998 15.2703 15.2703 16.2998 14 16.2998H3C1.72975 16.2998 0.700195 15.2703 0.700195 14V3C0.700195 1.72975 1.72975 0.700195 3 0.700195Z" fill="white" stroke="#1D2B3A" stroke-width="1.4"/>
<path d="M4 6C4 4.89543 4.89543 4 6 4H11C12.1046 4 13 4.89543 13 6V11C13 12.1046 12.1046 13 11 13H6C4.89543 13 4 12.1046 4 11V6Z" fill="#C61D35"/>
</g>
<defs>
<clipPath id="clip0_2_204">
<rect width="17" height="17" fill="white"/>
</clipPath>
</defs>
</svg>
